#N canvas 421 205 853 632 10;
#X obj 48 104 tgl 15 0 empty empty empty 17 7 0 10 #fcfcfc #000000
#000000 0 1;
#X obj 225 73 s bela_setDigital;
#X obj 225 26 loadbang;
#X obj 37 24 r bela_digitalIn18;
#X msg 225 48 in 18;
#X obj 72 168 print digitalInput;
#X obj 234 281 dac~;
#X obj 259 128 tgl 15 0 empty empty listen_and_destroy 17 7 0 10 #fcfcfc
#000000 #000000 0 1;
#X obj 334 224 bng 15 250 50 0 empty empty destruction_indicator 17
7 0 10 #fcfcfc #000000 #000000;
#X obj 260 197 ys.memory_loss_demo;
#X obj 74 242 line~;
#X msg 30 218 \$1 50;
#X obj 71 300 *~;
#X obj 132 287 *~ 0.4;
#X obj 71 321 dac~;
#X obj 132 266 osc~ 300;
#X obj 39 66 bela_debounce 50;
#X msg 290 49 in 12;
#X obj 410 340 writesf~;
#X msg 452 298 open arthur1.wav;
#X msg 409 277 start;
#X msg 462 275 stop;
#X obj 617 283 bng 15 250 50 0 reset_all empty reset_all 17 7 0 10
#fcfcfc #000000 #000000;
#X obj 498 98 s record_sound;
#X obj 494 68 tgl 15 0 empty empty empty 17 7 0 10 #fcfcfc #000000
#000000 0 1;
#X obj 602 67 bela_debounce 50;
#X obj 600 25 r bela_digitalIn12;
#X obj 604 132 print record;
#X msg 335 49 in 11;
#X obj 615 220 bela_debounce 50;
#X obj 615 241 sel 1;
#X obj 728 276 print reset_all;
#X obj 613 178 r bela_digitalIn11;
#X connect 0 0 5 0;
#X connect 0 0 7 0;
#X connect 2 0 4 0;
#X connect 2 0 17 0;
#X connect 2 0 28 0;
#X connect 3 0 16 0;
#X connect 4 0 1 0;
#X connect 7 0 9 0;
#X connect 9 0 6 0;
#X connect 9 0 6 1;
#X connect 9 0 18 0;
#X connect 9 2 8 0;
#X connect 10 0 12 1;
#X connect 11 0 10 0;
#X connect 12 0 14 0;
#X connect 12 0 14 1;
#X connect 13 0 12 0;
#X connect 15 0 13 0;
#X connect 16 0 0 0;
#X connect 17 0 1 0;
#X connect 19 0 18 0;
#X connect 20 0 18 0;
#X connect 21 0 18 0;
#X connect 24 0 23 0;
#X connect 24 0 27 0;
#X connect 25 0 24 0;
#X connect 26 0 25 0;
#X connect 28 0 1 0;
#X connect 29 0 30 0;
#X connect 30 0 22 0;
#X connect 30 0 31 0;
#X connect 32 0 29 0;
