#N canvas 454 25 945 547 10;
#X obj 73 305 tgl 15 0 empty empty empty 17 7 0 10 #fcfcfc #000000
#000000 0 1;
#X obj 66 129 s bela_setDigital;
#X obj 66 82 loadbang;
#X obj 62 225 r bela_digitalIn18;
#X msg 66 104 in 18;
#X obj 97 369 print digitalInput;
#X obj 303 432 dac~;
#X obj 328 279 tgl 15 0 empty empty listen_and_destroy 17 7 0 10 #fcfcfc
#000000 #000000 0 1;
#X obj 403 375 bng 15 250 50 0 empty empty destruction_indicator 17
7 0 10 #fcfcfc #000000 #000000;
#X obj 329 348 ys.memory_loss_demo;
#X obj 99 443 line~;
#X msg 55 419 \$1 50;
#X obj 96 501 *~;
#X obj 157 488 *~ 0.4;
#X obj 96 522 dac~;
#X obj 157 467 osc~ 300;
#X obj 64 267 bela_debounce 50;
#X connect 0 0 5 0;
#X connect 0 0 7 0;
#X connect 2 0 4 0;
#X connect 3 0 16 0;
#X connect 4 0 1 0;
#X connect 7 0 9 0;
#X connect 9 0 6 0;
#X connect 9 0 6 1;
#X connect 9 2 8 0;
#X connect 10 0 12 1;
#X connect 11 0 10 0;
#X connect 12 0 14 0;
#X connect 12 0 14 1;
#X connect 13 0 12 0;
#X connect 15 0 13 0;
#X connect 16 0 0 0;
