#N canvas 272 233 648 582 12;
#X obj 133 297 soundfiler;
#X floatatom 138 330 15 0 0 0 - - - 0;
#X obj 140 182 openpanel;
#X obj 155 142 bng 15 250 50 0 empty empty choose_file 17 7 0 10 #fcfcfc
#000000 #000000;
#X obj 388 521 s phasorFreq;
#X obj 440 409 s sizeSamples;
#X obj 388 451 expr 44100/$f1;
#X obj 281 159 loadbang;
#X msg 138 263 read -resize \$1 \$2-sound-L;
#X obj 281 183 i \$1;
#X obj 349 141 bng 15 250 50 0 empty empty empty 17 7 0 10 #fcfcfc
#000000 #000000;
#X obj 147 493 send \$1-sound-L;
#X obj 145 389 pack f f;
#X obj 137 219 pack s f;
#X obj 255 48 inlet;
#X msg 227 82 plover_short.wav;
#X msg 457 290 \; \$1-sound-L arraydialog;
#X msg 148 457 arraydialog \$2-sound-L \$1 3;
#X connect 0 0 1 0;
#X connect 1 0 5 0;
#X connect 1 0 6 0;
#X connect 1 0 12 0;
#X connect 2 0 13 0;
#X connect 3 0 2 0;
#X connect 6 0 4 0;
#X connect 7 0 9 0;
#X connect 8 0 0 0;
#X connect 9 0 12 1;
#X connect 9 0 13 1;
#X connect 10 0 9 0;
#X connect 12 0 17 0;
#X connect 13 0 8 0;
#X connect 14 0 15 0;
#X connect 15 0 13 0;
#X connect 17 0 11 0;
